<svg width="133" height="40" viewBox="0 0 133 40" fill="none" xmlns="http://www.w3.org/2000/svg">
<path fill-rule="evenodd" clip-rule="evenodd" d="M20.0955 36.3265C28.9521 36.3265 36.1318 29.0169 36.1318 20C36.1318 10.9831 28.9521 3.67347 20.0955 3.67347C11.239 3.67347 4.05932 10.9831 4.05932 20C4.05932 29.0169 11.239 36.3265 20.0955 36.3265ZM20.0955 40C30.9448 40 39.7399 31.0457 39.7399 20C39.7399 8.95431 30.9448 0 20.0955 0C9.24626 0 0.451172 8.95431 0.451172 20C0.451172 31.0457 9.24626 40 20.0955 40Z" fill="white"/>
<path fill-rule="evenodd" clip-rule="evenodd" d="M30.9612 19.9997C32.267 19.9997 33.3477 18.9112 33.1164 17.601C32.1413 12.078 27.8591 7.72392 22.4314 6.73959C21.1553 6.50817 20.0957 7.60149 20.0957 8.92281V8.92281C20.0957 10.2441 21.1665 11.2821 22.4134 11.6427C25.2323 12.458 27.469 14.7236 28.2741 17.619C28.6302 18.8998 29.6553 19.9997 30.9612 19.9997V19.9997Z" fill="white"/>
<path d="M67.2316 23.1825C67.2316 24.5642 66.9997 25.8252 66.5359 26.9656C66.0721 28.106 65.4411 29.0874 64.6429 29.9098C63.8447 30.7212 62.9063 31.3517 61.8277 31.8013C60.7598 32.2509 59.6111 32.4757 58.3814 32.4757C57.1626 32.4757 56.0138 32.2454 54.9352 31.7849C53.8674 31.3243 52.9289 30.6829 52.12 29.8605C51.3218 29.038 50.6908 28.0621 50.227 26.9327C49.7632 25.7923 49.5312 24.5422 49.5312 23.1825V7.52393H53.9644V15.748C54.2017 15.4409 54.4876 15.1668 54.822 14.9256C55.1671 14.6843 55.5338 14.487 55.9222 14.3334C56.3213 14.1799 56.7311 14.0648 57.1518 13.988C57.5725 13.9003 57.9823 13.8564 58.3814 13.8564C59.6111 13.8564 60.7598 14.0922 61.8277 14.5637C62.9063 15.0243 63.8447 15.6712 64.6429 16.5046C65.4411 17.338 66.0721 18.3248 66.5359 19.4652C66.9997 20.5947 67.2316 21.8338 67.2316 23.1825ZM62.7823 23.1825C62.7823 22.5027 62.6636 21.8722 62.4263 21.291C62.1998 20.6989 61.887 20.189 61.4879 19.7613C61.0888 19.3337 60.6196 18.9992 60.0803 18.758C59.5518 18.5167 58.9855 18.3961 58.3814 18.3961C57.7774 18.3961 57.2057 18.5332 56.6664 18.8073C56.1379 19.0705 55.6741 19.4269 55.275 19.8765C54.8759 20.3151 54.5631 20.825 54.3366 21.4061C54.1101 21.9763 53.9968 22.5685 53.9968 23.1825C53.9968 23.8624 54.1101 24.4929 54.3366 25.0741C54.5631 25.6552 54.8759 26.1596 55.275 26.5873C55.6741 27.0149 56.1379 27.3549 56.6664 27.6071C57.2057 27.8483 57.7774 27.9689 58.3814 27.9689C58.9855 27.9689 59.5518 27.8483 60.0803 27.6071C60.6196 27.3549 61.0888 27.0149 61.4879 26.5873C61.887 26.1596 62.1998 25.6552 62.4263 25.0741C62.6636 24.4929 62.7823 23.8624 62.7823 23.1825Z" fill="white"/>
<path d="M82.4242 30.0907C82.0683 30.4197 81.6853 30.7322 81.2755 31.0283C80.8764 31.3134 80.4557 31.5656 80.0135 31.7849C79.5712 31.9932 79.1128 32.1577 78.6382 32.2783C78.1744 32.4099 77.6998 32.4757 77.2144 32.4757C76.1466 32.4757 75.1434 32.2838 74.205 31.9C73.2666 31.5162 72.4414 30.9734 71.7295 30.2717C71.0284 29.5589 70.4729 28.6981 70.0631 27.6893C69.664 26.6695 69.4644 25.5291 69.4644 24.2681V14.5308H73.8652V24.2681C73.8652 24.8602 73.9515 25.392 74.1241 25.8636C74.3075 26.3241 74.5502 26.7134 74.8522 27.0314C75.1542 27.3494 75.5048 27.5906 75.9039 27.7551C76.3137 27.9196 76.7506 28.0018 77.2144 28.0018C77.6674 28.0018 78.0935 27.8976 78.4926 27.6893C78.9025 27.47 79.2584 27.1849 79.5604 26.834C79.8624 26.4831 80.0997 26.0884 80.2723 25.6497C80.4449 25.2002 80.5312 24.7396 80.5312 24.2681V14.5308H84.9482V32.1467H83.8804L82.4242 30.0907Z" fill="white"/>
<path d="M105.674 23.1825C105.674 24.5642 105.442 25.8252 104.978 26.9656C104.515 28.106 103.884 29.0874 103.085 29.9098C102.287 30.7212 101.349 31.3517 100.27 31.8013C99.2024 32.2509 98.0536 32.4757 96.824 32.4757C95.6051 32.4757 94.4564 32.2454 93.3777 31.7849C92.3099 31.3243 91.3715 30.6829 90.5625 29.8605C89.7643 29.038 89.1333 28.0621 88.6695 26.9327C88.2057 25.7923 87.9738 24.5422 87.9738 23.1825V7.52393H92.407V15.748C92.6443 15.4409 92.9301 15.1668 93.2645 14.9256C93.6096 14.6843 93.9764 14.487 94.3647 14.3334C94.7638 14.1799 95.1737 14.0648 95.5943 13.988C96.015 13.9003 96.4249 13.8564 96.824 13.8564C98.0536 13.8564 99.2024 14.0922 100.27 14.5637C101.349 15.0243 102.287 15.6712 103.085 16.5046C103.884 17.338 104.515 18.3248 104.978 19.4652C105.442 20.5947 105.674 21.8338 105.674 23.1825ZM101.225 23.1825C101.225 22.5027 101.106 21.8722 100.869 21.291C100.642 20.6989 100.33 20.189 99.9304 19.7613C99.5313 19.3337 99.0621 18.9992 98.5228 18.758C97.9943 18.5167 97.428 18.3961 96.824 18.3961C96.2199 18.3961 95.6483 18.5332 95.1089 18.8073C94.5804 19.0705 94.1166 19.4269 93.7175 19.8765C93.3184 20.3151 93.0056 20.825 92.7791 21.4061C92.5526 21.9763 92.4393 22.5685 92.4393 23.1825C92.4393 23.8624 92.5526 24.4929 92.7791 25.0741C93.0056 25.6552 93.3184 26.1596 93.7175 26.5873C94.1166 27.0149 94.5804 27.3549 95.1089 27.6071C95.6483 27.8483 96.2199 27.9689 96.824 27.9689C97.428 27.9689 97.9943 27.8483 98.5228 27.6071C99.0621 27.3549 99.5313 27.0149 99.9304 26.5873C100.33 26.1596 100.642 25.6552 100.869 25.0741C101.106 24.4929 101.225 23.8624 101.225 23.1825Z" fill="white"/>
<path d="M112.583 32.1467H108.133V7.52393H112.583V32.1467Z" fill="white"/>
</svg>
