<svg fill="none" height="32" viewBox="0 0 33 32" width="33" xmlns="http://www.w3.org/2000/svg"><path clip-rule="evenodd" d="m16.2039 31.9999.0143.0001h-.0049zm.1128.0001h-.0049l.0143-.0001zm-.1616-.0003.0154.0001h-.0089zm.2133.0001h-.0089l.0155-.0001zm-.2604-.0005.0103.0001-.0083-.0001zm.312 0-.0083.0001.0104-.0001zm.0516-.0005h-.0036l.0139-.0002zm-.4235-.0002.014.0002h-.0037zm.475-.0006-.0084.0001.0172-.0002zm-.5249-.0001.0171.0002-.0084-.0001zm.5764-.0008-.0114.0002.0159-.0003zm-.6237-.0001.0159.0003-.0114-.0002zm-.0585-.0012.0141.0003h-.0025zm.7337.0003h-.0025l.014-.0003zm-.785-.0016.0193.0005-.0079-.0002zm.8364.0003-.0078.0002.0193-.0005zm.0514-.0014-.0126.0004.0198-.0005zm-.9349-.0001.0197.0005-.0126-.0004zm-.045-.0014.014.0004-.0132-.0004-.0121-.0004zm1.0312 0-.0132.0004.0141-.0004.0113-.0004zm.0513-.0017-.007.0002.0216-.0007zm-1.1476-.0005.0216.0007-.007-.0002zm-.0467-.0018.0226.0009-.0126-.0005zm1.2456.0004-.0125.0005.0226-.0009zm-1.2916-.0022.0222.0009-.0173-.0007zm1.3428.0002-.0173.0007.0221-.0009zm-1.4071-.003.0237.001-.0058-.0002zm1.4583.0008-.0058.0002.0237-.001zm-1.5045-.003.0247.0012-.0117-.0005zm1.5556.0007-.0116.0005.0246-.0012zm-1.601-.003.0248.0013-.0175-.0008zm1.6521.0005-.0174.0008.0248-.0013zm.0511-.0027-.0226.0012.02-.0011.0236-.0013zm-1.7444.0001.0201.0011-.0227-.0012-.021-.0012zm1.7954-.003-.01.0006.0253-.0015zm-1.8643-.0009.0254.0015-.01-.0006zm-.0451-.0027.0253.0015-.0158-.0008zm1.9603.0007-.0158.0008.0253-.0015zm-2.0033-.0034.0228.0015-.0213-.0013-.0213-.0014zm2.0543.0002-.0212.0013.0228-.0015.0198-.0012zm.0509-.0033-.0077.0005.0242-.0017zm-2.1711-.0012.0242.0017-.0076-.0005zm-.045-.0031.0237.0017-.013-.0009zm2.2669.0008-.013.0009.0238-.0017zm-2.3118-.004.0218.0016-.017-.0012zm2.3626.0004-.0169.0012.0218-.0016zm-2.423-.0049.0191.0014-.0047-.0003zm2.4738.0011-.0046.0003.0191-.0014zm.0506-.004-.0091.0007.0194-.0015zm-2.5709-.0008.0194.0015-.0091-.0007zm-.0453-.0037.0165.0014-.0116-.001zm2.667.0004-.0117.001.0165-.0014zm-2.7169-.0046.005.0004h-.0008zm2.7675.0004h-.0008l.0049-.0004zm.0506-.0045-.0045.0004.0113-.001zm-2.8713-.0006.0113.001-.0045-.0004zm-.0469-.0042.0084.0008-.0052-.0005zm2.9686.0003-.0052.0005.0084-.0008zm-3.9814-.1266c-7.64088-1.2016-13.492862-7.8252-13.492862-15.8055 0-8.83061 7.165602-16 15.991562-16 8.826 0 15.9916 7.16939 15.9916 16 0 7.9803-5.852 14.6039-13.4929 15.8055v-11.1805h3.7262l.709-4.625h-4.4352v-3.0013c0-1.2653.6195-2.4987 2.6061-2.4987h2.0165v-3.93749s-1.8301-.3125-3.5797-.3125c-3.6528 0-6.0403 2.21501-6.0403 6.22499v3.525h-4.06033v4.625h4.06033z" fill="#1d1d1d" fill-rule="evenodd"/></svg>