<svg fill="none" height="32" viewBox="0 0 33 32" width="33" xmlns="http://www.w3.org/2000/svg"><path clip-rule="evenodd" d="m16.2319 0c8.8261 0 15.9917 7.16938 15.9917 16 0 8.8306-7.1656 16-15.9917 16-8.82601 0-15.991666-7.1694-15.991666-16 0-8.83062 7.165656-16 15.991666-16zm0 6c-2.7144 0-3.0548.0115-4.1208.06019-1.0639.04856-1.7904.21762-2.42621.46481-.65722.25556-1.21462.5975-1.77026 1.15344-.55565.55594-.89741 1.11362-1.15284 1.77119-.24706.63607-.41597 1.36297-.46457 2.42737-.0486 1.0666-.0601 1.4072-.0601 4.123s.0115 3.0564.0601 4.123c.0486 1.0644.21751 1.7913.46457 2.4274.25543.6575.59719 1.2152 1.15284 1.7712.55564.556 1.11304.8979 1.77026 1.1535.63581.2471 1.36231.4161 2.42621.4647 1.066.0487 1.4064.0602 4.1208.0602s3.0548-.0115 4.1209-.0602c1.0638-.0486 1.7904-.2176 2.4261-.4647.6572-.2556 1.2146-.5975 1.7703-1.1535s.8975-1.1137 1.1529-1.7712c.247-.6361.416-1.363.4645-2.4274.0487-1.0666.0601-1.4072.0601-4.123s-.0114-3.0564-.0601-4.123c-.0485-1.0644-.2175-1.7913-.4645-2.42737-.2554-.65757-.5972-1.21525-1.1529-1.77119s-1.1131-.89788-1.7703-1.15344c-.6357-.24719-1.3623-.41625-2.4261-.46481-1.0661-.04869-1.4065-.06019-4.1209-.06019zm0 1.80181c2.6688 0 2.9849.01019 4.0388.05832.9745.0445 1.5037.20737 1.8559.34431.4665.18137.7995.39812 1.1492.74806.3498.34988.5664.68306.7477 1.1498.1368.3524.2997.8818.3441 1.8568.0481 1.0545.0583 1.3708.0583 4.0409s-.0102 2.9864-.0583 4.0409c-.0444.975-.2073 1.5044-.3441 1.8568-.1813.4668-.3979.7999-.7477 1.1498-.3497.35-.6827.5667-1.1492.7481-.3522.1369-.8814.2998-1.8559.3443-1.0538.0481-1.3698.0583-4.0388.0583-2.6689 0-2.9849-.0102-4.0387-.0583-.9745-.0445-1.5037-.2074-1.8559-.3443-.46656-.1814-.79952-.3981-1.14927-.7481-.34976-.3499-.56633-.683-.74761-1.1498-.13687-.3524-.29972-.8818-.3442-1.8568-.0481-1.0545-.05822-1.3708-.05822-4.0409s.01012-2.9864.05822-4.0409c.04448-.975.20733-1.5044.3442-1.8568.18128-.46674.39785-.79992.74761-1.1498.34975-.34994.68271-.56669 1.14927-.74806.3522-.13694.8814-.29981 1.8559-.34431 1.0539-.04813 1.37-.05832 4.0387-.05832zm0 3.06309c-2.8346 0-5.1324 2.299-5.1324 5.1351s2.2978 5.1351 5.1324 5.1351 5.1325-2.299 5.1325-5.1351-2.2979-5.1351-5.1325-5.1351zm0 8.4684c-1.8399 0-3.3315-1.4924-3.3315-3.3333s1.4916-3.3333 3.3315-3.3333c1.84 0 3.3316 1.4924 3.3316 3.3333s-1.4916 3.3333-3.3316 3.3333zm6.5347-8.6713c0 .6627-.537 1.1999-1.1994 1.1999s-1.1993-.5372-1.1993-1.1999c0-.66275.5369-1.2 1.1993-1.2s1.1994.53725 1.1994 1.2z" fill="#1d1d1d" fill-rule="evenodd"/></svg>