<svg fill="none" height="32" viewBox="0 0 33 32" width="33" xmlns="http://www.w3.org/2000/svg"><path clip-rule="evenodd" d="m16.1987 0c8.8261 0 15.9917 7.16938 15.9917 16 0 8.8306-7.1656 16-15.9917 16-8.82601 0-15.991669-7.1694-15.991669-16 0-8.83062 7.165659-16 15.991669-16zm-2.8167 24.5099c7.0765 0 10.9458-5.8669 10.9458-10.9515 0-.1676 0-.3352-.008-.4949.75-.5427 1.4042-1.2213 1.9227-1.9955-.6861.3033-1.4281.5109-2.2099.6066.7978-.4789 1.4041-1.2292 1.6914-2.13116-.742.439-1.5637.75826-2.4413.93386-.7021-.7503-1.6993-1.21324-2.8083-1.21324-2.1221 0-3.8453 1.72414-3.8453 3.84734 0 .3034.0319.5987.1037.878-3.1992-.1596-6.0314-1.6922-7.93011-4.02296-.32714.56676-.5186 1.22926-.5186 1.93166 0 1.333.67815 2.5144 1.7153 3.2008-.6303-.0159-1.22068-.1915-1.73923-.4788v.0478c0 1.8678 1.32432 3.4164 3.08744 3.7756-.3191.0878-.6621.1357-1.0131.1357-.2474 0-.48672-.0239-.72604-.0719.48664 1.5326 1.90674 2.6421 3.59004 2.674-1.3163 1.0298-2.9757 1.6444-4.77879 1.6444-.31116 0-.61431-.016-.91747-.0559 1.68338 1.1015 3.70976 1.7401 5.87976 1.7401z" fill="#1d1d1d" fill-rule="evenodd"/></svg>