<svg width="1794" height="622" viewBox="0 0 1794 622" fill="none" xmlns="http://www.w3.org/2000/svg">
<path fill-rule="evenodd" clip-rule="evenodd" d="M318.075 564.878C458.26 564.878 571.902 451.213 571.902 311C571.902 170.787 458.26 57.1224 318.075 57.1224C177.891 57.1224 64.2491 170.787 64.2491 311C64.2491 451.213 177.891 564.878 318.075 564.878ZM318.075 622C489.801 622 629.013 482.761 629.013 311C629.013 139.239 489.801 0 318.075 0C146.35 0 7.13818 139.239 7.13818 311C7.13818 482.761 146.35 622 318.075 622Z" fill="white"/>
<path fill-rule="evenodd" clip-rule="evenodd" d="M490.058 311C510.727 311 527.833 294.074 524.172 273.7C508.737 187.817 440.957 120.111 355.046 104.805C334.848 101.206 318.076 118.207 318.076 138.754V138.754C318.076 159.3 335.025 175.44 354.761 181.048C399.379 193.727 434.783 228.956 447.525 273.979C453.162 293.895 469.388 311 490.058 311V311Z" fill="white"/>
<path d="M1064.17 360.491C1064.17 381.976 1060.5 401.584 1053.16 419.318C1045.81 437.051 1035.83 452.312 1023.19 465.1C1010.56 477.718 995.705 487.523 978.632 494.514C961.73 501.504 943.547 505 924.084 505C904.791 505 886.609 501.419 869.536 494.258C852.633 487.096 837.78 477.121 824.975 464.333C812.341 451.544 802.353 436.369 795.012 418.806C787.671 401.073 784 381.635 784 360.491V117H854.17V244.884C857.926 240.11 862.45 235.847 867.743 232.096C873.206 228.344 879.011 225.275 885.157 222.888C891.474 220.501 897.962 218.71 904.62 217.517C911.279 216.153 917.767 215.471 924.084 215.471C943.547 215.471 961.73 219.137 978.632 226.469C995.705 233.63 1010.56 243.69 1023.19 256.649C1035.83 269.608 1045.81 284.954 1053.16 302.688C1060.5 320.25 1064.17 339.518 1064.17 360.491ZM993.741 360.491C993.741 349.919 991.863 340.115 988.107 331.078C984.522 321.87 979.571 313.941 973.254 307.291C966.937 300.641 959.51 295.441 950.974 291.69C942.608 287.938 933.645 286.063 924.084 286.063C914.523 286.063 905.474 288.194 896.938 292.457C888.572 296.549 881.231 302.091 874.914 309.082C868.597 315.902 863.645 323.831 860.06 332.868C856.475 341.735 854.682 350.942 854.682 360.491C854.682 371.063 856.475 380.867 860.06 389.904C863.645 398.942 868.597 406.785 874.914 413.435C881.231 420.085 888.572 425.371 896.938 429.293C905.474 433.044 914.523 434.92 924.084 434.92C933.645 434.92 942.608 433.044 950.974 429.293C959.51 425.371 966.937 420.085 973.254 413.435C979.571 406.785 984.522 398.942 988.107 389.904C991.863 380.867 993.741 371.063 993.741 360.491Z" fill="white"/>
<path d="M1304.64 467.914C1299.01 473.029 1292.95 477.889 1286.46 482.492C1280.14 486.926 1273.48 490.847 1266.48 494.258C1259.48 497.497 1252.23 500.055 1244.71 501.931C1237.37 503.977 1229.86 505 1222.18 505C1205.28 505 1189.4 502.016 1174.54 496.048C1159.69 490.08 1146.63 481.64 1135.36 470.727C1124.26 459.644 1115.47 446.259 1108.98 430.572C1102.67 414.714 1099.51 396.981 1099.51 377.372V225.957H1169.17V377.372C1169.17 386.579 1170.53 394.849 1173.26 402.181C1176.17 409.343 1180.01 415.396 1184.79 420.341C1189.57 425.286 1195.12 429.037 1201.43 431.595C1207.92 434.152 1214.84 435.431 1222.18 435.431C1229.35 435.431 1236.09 433.811 1242.41 430.572C1248.9 427.161 1254.53 422.728 1259.31 417.272C1264.09 411.815 1267.85 405.677 1270.58 398.856C1273.31 391.865 1274.68 384.704 1274.68 377.372V225.957H1344.59V499.885H1327.69L1304.64 467.914Z" fill="white"/>
<path d="M1672.65 360.491C1672.65 381.976 1668.98 401.584 1661.64 419.318C1654.29 437.051 1644.31 452.312 1631.67 465.1C1619.04 477.718 1604.19 487.523 1587.11 494.514C1570.21 501.504 1552.03 505 1532.56 505C1513.27 505 1495.09 501.419 1478.02 494.258C1461.11 487.096 1446.26 477.121 1433.46 464.333C1420.82 451.544 1410.83 436.369 1403.49 418.806C1396.15 401.073 1392.48 381.635 1392.48 360.491V117H1462.65V244.884C1466.41 240.11 1470.93 235.847 1476.22 232.096C1481.69 228.344 1487.49 225.275 1493.64 222.888C1499.95 220.501 1506.44 218.71 1513.1 217.517C1519.76 216.153 1526.25 215.471 1532.56 215.471C1552.03 215.471 1570.21 219.137 1587.11 226.469C1604.19 233.63 1619.04 243.69 1631.67 256.649C1644.31 269.608 1654.29 284.954 1661.64 302.688C1668.98 320.25 1672.65 339.518 1672.65 360.491ZM1602.22 360.491C1602.22 349.919 1600.34 340.115 1596.59 331.078C1593 321.87 1588.05 313.941 1581.73 307.291C1575.42 300.641 1567.99 295.441 1559.45 291.69C1551.09 287.938 1542.12 286.063 1532.56 286.063C1523 286.063 1513.95 288.194 1505.42 292.457C1497.05 296.549 1489.71 302.091 1483.39 309.082C1477.08 315.902 1472.13 323.831 1468.54 332.868C1464.96 341.735 1463.16 350.942 1463.16 360.491C1463.16 371.063 1464.96 380.867 1468.54 389.904C1472.13 398.942 1477.08 406.785 1483.39 413.435C1489.71 420.085 1497.05 425.371 1505.42 429.293C1513.95 433.044 1523 434.92 1532.56 434.92C1542.12 434.92 1551.09 433.044 1559.45 429.293C1567.99 425.371 1575.42 420.085 1581.73 413.435C1588.05 406.785 1593 398.942 1596.59 389.904C1600.34 380.867 1602.22 371.063 1602.22 360.491Z" fill="white"/>
<path d="M1782 499.885H1711.57V117H1782V499.885Z" fill="white"/>
</svg>
