<svg width="133" height="40" viewBox="0 0 133 40" fill="none" xmlns="http://www.w3.org/2000/svg">
<path fill-rule="evenodd" clip-rule="evenodd" d="M20.0954 36.3265C28.9519 36.3265 36.1316 29.0169 36.1316 20C36.1316 10.9831 28.9519 3.67347 20.0954 3.67347C11.2388 3.67347 4.05914 10.9831 4.05914 20C4.05914 29.0169 11.2388 36.3265 20.0954 36.3265ZM20.0954 40C30.9446 40 39.7397 31.0457 39.7397 20C39.7397 8.95431 30.9446 0 20.0954 0C9.24607 0 0.450989 8.95431 0.450989 20C0.450989 31.0457 9.24607 40 20.0954 40Z" fill="black"/>
<path fill-rule="evenodd" clip-rule="evenodd" d="M30.9609 20C32.2667 20 33.3474 18.9115 33.1161 17.6013C32.141 12.0782 27.8588 7.72417 22.4311 6.73983C21.155 6.50842 20.0954 7.60173 20.0954 8.92306C20.0954 10.2444 21.1662 11.2823 22.4131 11.643C25.232 12.4583 27.4687 14.7238 28.2737 17.6192C28.6299 18.9 29.655 20 30.9609 20Z" fill="black"/>
<path d="M67.2319 23.1828C67.2319 24.5644 67 25.8254 66.5362 26.9658C66.0724 28.1062 65.4413 29.0876 64.6432 29.91C63.845 30.7215 62.9066 31.352 61.8279 31.8016C60.7601 32.2512 59.6113 32.4759 58.3817 32.4759C57.1628 32.4759 56.0141 32.2457 54.9355 31.7851C53.8676 31.3246 52.9292 30.6831 52.1202 29.8607C51.322 29.0383 50.691 28.0624 50.2272 26.9329C49.7634 25.7925 49.5315 24.5425 49.5315 23.1828V7.52417H53.9647V15.7482C54.202 15.4412 54.4878 15.1671 54.8222 14.9258C55.1674 14.6846 55.5341 14.4872 55.9224 14.3337C56.3215 14.1802 56.7314 14.065 57.152 13.9883C57.5727 13.9006 57.9826 13.8567 58.3817 13.8567C59.6113 13.8567 60.7601 14.0924 61.8279 14.564C62.9066 15.0245 63.845 15.6715 64.6432 16.5048C65.4413 17.3382 66.0724 18.3251 66.5362 19.4655C67 20.5949 67.2319 21.834 67.2319 23.1828ZM62.7825 23.1828C62.7825 22.5029 62.6639 21.8724 62.4266 21.2912C62.2001 20.6991 61.8872 20.1892 61.4882 19.7616C61.0891 19.3339 60.6199 18.9995 60.0805 18.7582C59.552 18.517 58.9857 18.3964 58.3817 18.3964C57.7777 18.3964 57.206 18.5334 56.6667 18.8076C56.1381 19.0707 55.6743 19.4271 55.2752 19.8767C54.8761 20.3153 54.5633 20.8252 54.3368 21.4064C54.1103 21.9766 53.997 22.5687 53.997 23.1828C53.997 23.8626 54.1103 24.4931 54.3368 25.0743C54.5633 25.6555 54.8761 26.1599 55.2752 26.5875C55.6743 27.0152 56.1381 27.3551 56.6667 27.6073C57.206 27.8485 57.7777 27.9692 58.3817 27.9692C58.9857 27.9692 59.552 27.8485 60.0805 27.6073C60.6199 27.3551 61.0891 27.0152 61.4882 26.5875C61.8872 26.1599 62.2001 25.6555 62.4266 25.0743C62.6639 24.4931 62.7825 23.8626 62.7825 23.1828Z" fill="black"/>
<path d="M82.4244 30.091C82.0685 30.4199 81.6856 30.7324 81.2757 31.0285C80.8766 31.3136 80.4559 31.5658 80.0137 31.7851C79.5715 31.9935 79.113 32.1579 78.6384 32.2786C78.1746 32.4102 77.7 32.4759 77.2146 32.4759C76.1468 32.4759 75.1437 32.284 74.2053 31.9003C73.2668 31.5165 72.4417 30.9737 71.7298 30.2719C71.0287 29.5591 70.4732 28.6984 70.0633 27.6895C69.6642 26.6698 69.4647 25.5294 69.4647 24.2683V14.5311H73.8655V24.2683C73.8655 24.8605 73.9518 25.3923 74.1244 25.8638C74.3077 26.3244 74.5504 26.7136 74.8524 27.0316C75.1545 27.3496 75.505 27.5909 75.9041 27.7553C76.314 27.9198 76.7508 28.0021 77.2146 28.0021C77.6677 28.0021 78.0937 27.8979 78.4928 27.6895C78.9027 27.4702 79.2587 27.1851 79.5607 26.8342C79.8627 26.4834 80.1 26.0886 80.2726 25.65C80.4452 25.2004 80.5314 24.7399 80.5314 24.2683V14.5311H84.9485V32.147H83.8806L82.4244 30.091Z" fill="black"/>
<path d="M105.674 23.1828C105.674 24.5644 105.443 25.8254 104.979 26.9658C104.515 28.1062 103.884 29.0876 103.086 29.91C102.287 30.7215 101.349 31.352 100.27 31.8016C99.2026 32.2512 98.0539 32.4759 96.8242 32.4759C95.6054 32.4759 94.4566 32.2457 93.378 31.7851C92.3101 31.3246 91.3717 30.6831 90.5627 29.8607C89.7646 29.0383 89.1336 28.0624 88.6697 26.9329C88.2059 25.7925 87.974 24.5425 87.974 23.1828V7.52417H92.4072V15.7482C92.6445 15.4412 92.9303 15.1671 93.2647 14.9258C93.6099 14.6846 93.9766 14.4872 94.3649 14.3337C94.764 14.1802 95.1739 14.065 95.5946 13.9883C96.0152 13.9006 96.4251 13.8567 96.8242 13.8567C98.0539 13.8567 99.2026 14.0924 100.27 14.564C101.349 15.0245 102.287 15.6715 103.086 16.5048C103.884 17.3382 104.515 18.3251 104.979 19.4655C105.443 20.5949 105.674 21.834 105.674 23.1828ZM101.225 23.1828C101.225 22.5029 101.106 21.8724 100.869 21.2912C100.643 20.6991 100.33 20.1892 99.9307 19.7616C99.5316 19.3339 99.0624 18.9995 98.5231 18.7582C97.9945 18.517 97.4282 18.3964 96.8242 18.3964C96.2202 18.3964 95.6485 18.5334 95.1092 18.8076C94.5807 19.0707 94.1168 19.4271 93.7177 19.8767C93.3187 20.3153 93.0058 20.8252 92.7793 21.4064C92.5528 21.9766 92.4396 22.5687 92.4396 23.1828C92.4396 23.8626 92.5528 24.4931 92.7793 25.0743C93.0058 25.6555 93.3187 26.1599 93.7177 26.5875C94.1168 27.0152 94.5807 27.3551 95.1092 27.6073C95.6485 27.8485 96.2202 27.9692 96.8242 27.9692C97.4282 27.9692 97.9945 27.8485 98.5231 27.6073C99.0624 27.3551 99.5316 27.0152 99.9307 26.5875C100.33 26.1599 100.643 25.6555 100.869 25.0743C101.106 24.4931 101.225 23.8626 101.225 23.1828Z" fill="black"/>
<path d="M112.583 32.147H108.134V7.52417H112.583V32.147Z" fill="black"/>
</svg>
