<?xml version="1.0" standalone="no"?>
<!DOCTYPE svg PUBLIC "-//W3C//DTD SVG 20010904//EN"
 "http://www.w3.org/TR/2001/REC-SVG-20010904/DTD/svg10.dtd">
<svg version="1.0" xmlns="http://www.w3.org/2000/svg"
 width="1024.000000pt" height="1024.000000pt" viewBox="0 0 1024.000000 1024.000000"
 preserveAspectRatio="xMidYMid meet">
<metadata>
Created by potrace 1.14, written by Peter Selinger 2001-2017
</metadata>
<g transform="translate(0.000000,1024.000000) scale(0.100000,-0.100000)"
fill="#000000" stroke="none">
<path d="M0 5120 l0 -5120 5120 0 5120 0 0 5120 0 5120 -5120 0 -5120 0 0
-5120z m5647 3896 c450 -58 845 -172 1231 -357 1054 -503 1829 -1450 2112
-2579 84 -332 114 -581 114 -945 1 -287 -9 -425 -50 -664 -64 -380 -167 -703
-338 -1056 -594 -1224 -1754 -2040 -3118 -2192 -194 -21 -786 -25 -953 -5
-359 42 -680 119 -995 239 -1308 499 -2262 1677 -2474 3056 -66 426 -61 879
15 1307 135 771 514 1495 1079 2061 328 329 631 549 1032 750 453 227 877 345
1453 403 105 10 776 -3 892 -18z"/>
<path d="M5010 8313 c-706 -49 -1323 -289 -1846 -718 -608 -499 -1011 -1199
-1133 -1965 -252 -1576 684 -3088 2209 -3569 308 -97 677 -150 940 -137 499
27 905 134 1335 354 286 146 559 346 795 582 888 886 1173 2203 733 3390 -48
130 -158 357 -241 498 -494 833 -1340 1399 -2297 1536 -108 16 -376 37 -425
34 -14 -1 -45 -3 -70 -5z m563 -603 c267 -54 546 -159 780 -292 628 -359 1082
-953 1257 -1648 35 -139 60 -277 60 -335 0 -111 -78 -228 -188 -282 -50 -25
-68 -28 -152 -28 -82 0 -103 4 -153 27 -73 34 -156 117 -195 194 -16 32 -42
113 -57 179 -173 751 -728 1305 -1474 1470 -139 31 -210 65 -283 137 -78 75
-110 147 -116 253 -6 113 20 179 102 261 103 102 174 113 419 64z"/>
</g>
</svg>
